
<svg width="40" height="40" viewBox="0 0 40 40" fill="none" xmlns="http://www.w3.org/2000/svg">
  <circle cx="20" cy="20" r="20" fill="white"/>
  <path d="M32.0502 8.94995L22.101 16.2262L24.3748 11.2758L32.0502 8.94995Z" fill="#E17726" stroke="#E17726" stroke-width="0.25" stroke-linecap="round" stroke-linejoin="round"/>
  <path d="M7.9498 8.94995L17.8158 16.2927L15.6252 11.2758L7.9498 8.94995Z" fill="#E27625" stroke="#E27625" stroke-width="0.25" stroke-linecap="round" stroke-linejoin="round"/>
  <path d="M28.0691 27.3214L25.0484 32.1282L31.1995 33.9741L33.0411 27.4219L28.0691 27.3214Z" fill="#E27625" stroke="#E27625" stroke-width="0.25" stroke-linecap="round" stroke-linejoin="round"/>
  <path d="M6.9751 27.4219L8.8005 33.9741L14.9353 32.1282L11.9307 27.3214L6.9751 27.4219Z" fill="#E27625" stroke="#E27625" stroke-width="0.25" stroke-linecap="round" stroke-linejoin="round"/>
  <path d="M14.5182 19.0248L12.5599 22.0842L18.6261 22.4188L18.3743 15.8564L14.5182 19.0248Z" fill="#E27625" stroke="#E27625" stroke-width="0.25" stroke-linecap="round" stroke-linejoin="round"/>
  <path d="M25.4815 19.0248L21.558 15.7894L21.3896 22.4188L27.4396 22.0842L25.4815 19.0248Z" fill="#E27625" stroke="#E27625" stroke-width="0.25" stroke-linecap="round" stroke-linejoin="round"/>
  <path d="M14.9354 32.1282L18.1887 30.1192L15.403 27.4722L14.9354 32.1282Z" fill="#E27625" stroke="#E27625" stroke-width="0.25" stroke-linecap="round" stroke-linejoin="round"/>
  <path d="M21.8115 30.1192L25.0484 32.1282L24.5971 27.4722L21.8115 30.1192Z" fill="#E27625" stroke="#E27625" stroke-width="0.25" stroke-linecap="round" stroke-linejoin="round"/>
</svg>
